<svg xmlns="http://www.w3.org/2000/svg" xmlns:xlink="http://www.w3.org/1999/xlink" width="1000" zoomAndPan="magnify" viewBox="0 0 750 749.999995" height="1000" preserveAspectRatio="xMidYMid meet" version="1.0"><defs><clipPath id="eda8147234"><path d="M 750 18 L 750 732 C 750 736.773438 748.105469 741.351562 744.726562 744.726562 C 741.351562 748.105469 736.773438 750 732 750 L 18 750 C 13.226562 750 8.648438 748.105469 5.273438 744.726562 C 1.894531 741.351562 0 736.773438 0 732 L 0 18 C 0 8.058594 8.058594 0 18 0 L 732 0 C 736.773438 0 741.351562 1.894531 744.726562 5.273438 C 748.105469 8.648438 750 13.226562 750 18 Z M 750 18 " clip-rule="nonzero"/></clipPath><clipPath id="303a9c8822"><path d="M 0 0 L 750 0 L 750 750 L 0 750 Z M 0 0 " clip-rule="nonzero"/></clipPath><clipPath id="5c9cc69573"><path d="M 750 18 L 750 732 C 750 736.773438 748.105469 741.351562 744.726562 744.726562 C 741.351562 748.105469 736.773438 750 732 750 L 18 750 C 13.226562 750 8.648438 748.105469 5.273438 744.726562 C 1.894531 741.351562 0 736.773438 0 732 L 0 18 C 0 8.058594 8.058594 0 18 0 L 732 0 C 736.773438 0 741.351562 1.894531 744.726562 5.273438 C 748.105469 8.648438 750 13.226562 750 18 Z M 750 18 " clip-rule="nonzero"/></clipPath><clipPath id="dc739617df"><rect x="0" width="750" y="0" height="750"/></clipPath></defs><rect x="-75" width="900" fill="#ffffff" y="-74.999999" height="899.999994" fill-opacity="1"/><rect x="-75" width="900" fill="#ffffff" y="-74.999999" height="899.999994" fill-opacity="1"/><g clip-path="url(#eda8147234)"><g transform="matrix(1, 0, 0, 1, 0, -0.000000000000042435)"><g clip-path="url(#dc739617df)"><g clip-path="url(#303a9c8822)"><g clip-path="url(#5c9cc69573)"><rect x="-165" width="1080" fill="#000000" height="1079.999992" y="-164.999999" fill-opacity="1"/></g></g></g></g></g><path fill="#ffffff" d="M 530.550781 555.363281 C 526.132812 554.390625 522.925781 551.890625 519.988281 548.957031 C 495.054688 524.039062 470.125 499.125 445.195312 474.207031 C 442.285156 471.300781 441.921875 471.332031 438.589844 473.714844 C 418.226562 488.289062 395.707031 497.6875 370.878906 501.054688 C 339.316406 505.339844 308.945312 501.121094 280.359375 486.679688 C 246.671875 469.660156 222.164062 443.839844 207.113281 409.140625 C 197.496094 386.960938 193.542969 363.726562 195.070312 339.699219 C 197.429688 302.601562 211.339844 270.316406 236.8125 243.117188 C 258.855469 219.582031 285.882812 204.835938 317.246094 197.988281 C 331.523438 194.871094 346.003906 194.339844 360.617188 195.363281 C 379.976562 196.722656 398.375 201.570312 415.667969 210.144531 C 452.929688 228.621094 478.957031 257.378906 493.449219 296.476562 C 499.378906 312.472656 502.375 329.042969 502.589844 346.015625 C 503.015625 379.523438 493.59375 410.113281 474.351562 437.613281 C 471.199219 442.121094 471.171875 442.136719 474.980469 445.945312 C 499.824219 470.808594 524.679688 495.667969 549.539062 520.515625 C 556.328125 527.300781 558.015625 537.003906 553.742188 544.996094 C 549.160156 553.554688 540.523438 557.480469 530.550781 555.363281 M 460.945312 365.28125 C 462.367188 356.375 462.425781 347.457031 461.625 338.480469 C 459.925781 319.425781 454.132812 301.664062 443.179688 286.085938 C 415.472656 246.671875 377.269531 229.953125 329.617188 236.636719 C 303.75 240.261719 281.902344 252.667969 264.34375 272.136719 C 241.675781 297.277344 231.949219 326.832031 235.175781 360.5 C 237.601562 385.832031 247.628906 408.011719 265.171875 426.351562 C 292.019531 454.414062 325.003906 466.371094 363.691406 461.535156 C 383.671875 459.039062 401.726562 451.371094 417.597656 439.039062 C 441.613281 420.375 455.910156 395.789062 460.945312 365.28125 Z M 460.945312 365.28125 " fill-opacity="1" fill-rule="nonzero"/><path fill="#ffffff" d="M 602.199219 134.5625 C 594.304688 143.648438 585.621094 151.667969 577.289062 160.03125 C 546.839844 190.582031 516.316406 221.066406 485.804688 251.5625 C 484.800781 252.570312 483.957031 253.828125 482.28125 254.339844 C 478.621094 249.890625 475.265625 245.226562 471.464844 240.925781 C 465.054688 233.660156 458.191406 226.882812 450.511719 220.976562 C 448.636719 219.535156 448.554688 218.601562 450.269531 216.890625 C 481.347656 185.863281 512.371094 154.777344 543.40625 123.703125 C 550.300781 116.800781 557.140625 109.835938 564.121094 103.015625 C 573.617188 93.738281 587.113281 92.886719 597.476562 100.613281 C 606.097656 107.039062 611.273438 121.742188 602.199219 134.5625 Z M 602.199219 134.5625 " fill-opacity="1" fill-rule="nonzero"/><path fill="#ffffff" d="M 151.953125 515.226562 C 172.9375 494.238281 193.773438 473.394531 214.605469 452.550781 C 218.75 448.40625 218.296875 448.367188 221.863281 452.78125 C 230.679688 463.699219 240.878906 473.183594 252.273438 481.378906 C 252.890625 481.824219 253.652344 482.160156 253.84375 483.054688 C 253.722656 484.128906 252.789062 484.636719 252.121094 485.300781 C 214.242188 523.199219 176.367188 561.101562 138.453125 598.960938 C 128.921875 608.476562 116.273438 609.734375 105.714844 602.402344 C 94.550781 594.648438 91.980469 578.183594 100.292969 567.34375 C 104.050781 562.441406 108.800781 558.472656 113.109375 554.097656 C 125.914062 541.09375 138.894531 528.265625 151.953125 515.226562 Z M 151.953125 515.226562 " fill-opacity="1" fill-rule="nonzero"/><path fill="#ffffff" d="M 406.628906 646.867188 C 396.507812 658.511719 378.847656 657.675781 369.738281 647.980469 C 360.679688 638.34375 360.644531 622.925781 370.003906 613.535156 C 403.554688 579.875 437.195312 546.304688 470.789062 512.683594 C 472 511.46875 472.902344 510.582031 474.574219 512.269531 C 485.007812 522.816406 495.53125 533.277344 506.015625 543.773438 C 506.558594 544.316406 507.191406 544.824219 507.351562 546.253906 C 473.996094 579.574219 440.386719 613.144531 406.628906 646.867188 Z M 406.628906 646.867188 " fill-opacity="1" fill-rule="nonzero"/><path fill="#ffffff" d="M 586.679688 396.835938 C 595.59375 387.921875 604.308594 379.101562 613.140625 370.398438 C 627.128906 356.617188 650.113281 362.929688 654.730469 381.984375 C 656.921875 391.039062 654.402344 399.132812 647.6875 405.824219 C 631.296875 422.160156 614.945312 438.535156 598.59375 454.90625 C 581.757812 471.757812 564.921875 488.613281 548.132812 505.515625 C 546.765625 506.894531 545.964844 506.871094 544.597656 505.496094 C 534.339844 495.183594 524.042969 484.910156 513.660156 474.722656 C 511.800781 472.898438 511.566406 471.820312 513.578125 469.824219 C 537.953125 445.601562 562.230469 421.277344 586.679688 396.835938 Z M 586.679688 396.835938 " fill-opacity="1" fill-rule="nonzero"/></svg>